<?xml version="1.0" encoding="UTF-8"?><svg id="Layer_1" xmlns="http://www.w3.org/2000/svg" viewBox="0 0 47.51 47.51"><defs><style>.cls-1{fill:#fff;}.cls-2{fill:#1d1d1b;}</style></defs><circle class="cls-2" cx="23.76" cy="23.76" r="23.76"/><g><path class="cls-1" d="M17.53,24.97l4.78,1.74c-.32,1.61-.83,2.96-1.52,4.05s-1.55,1.9-2.57,2.45-2.33,.83-3.91,.83c-1.92,0-3.49-.34-4.7-1.01s-2.27-1.85-3.15-3.54c-.88-1.69-1.33-3.85-1.33-6.49,0-3.52,.78-6.22,2.33-8.11,1.55-1.89,3.75-2.83,6.6-2.83,2.22,0,3.97,.54,5.25,1.62s2.22,2.75,2.84,4.99l-4.82,1.29c-.17-.65-.35-1.12-.53-1.42-.31-.5-.68-.89-1.12-1.16s-.94-.41-1.48-.41c-1.24,0-2.18,.6-2.84,1.8-.5,.89-.75,2.28-.75,4.19,0,2.36,.3,3.97,.89,4.84,.59,.87,1.43,1.31,2.51,1.31s1.83-.35,2.37-1.06,.92-1.73,1.16-3.07Z"/><path class="cls-1" d="M23.23,12.41h5.71l3.98,15.3,3.92-15.3h5.54l-6.56,21.26h-5.92l-6.67-21.26Z"/></g></svg>